<svg width="407" height="140" viewBox="0 0 407 140" fill="none" xmlns="http://www.w3.org/2000/svg">
<path d="M71 7L127 35V105L71 133L15 105V35L71 7Z" fill="#2D2D2D"/>
<path d="M69 7H71V63L69 63V7Z" fill="white"/>
<path d="M70 7L126 35L70 63L14 35L70 7Z" fill="white" fill-opacity="0.05"/>
<path d="M70 63V133L126 105V35L70 63Z" fill="black" fill-opacity="0.3"/>
<path d="M70 63L125 35.5V104L70 131.5V63Z" fill="#9E57B7"/>
<path d="M15.5 36L70 63V131.5L15.5 104V36Z" fill="#2D2D2D"/>
<path d="M70 7L126 35V105L70 133L14 105V35L70 7Z" stroke="white" stroke-width="2.8" stroke-linejoin="round"/>
<path d="M168.197 92.5966C164.76 92.5966 161.706 92.0071 159.035 90.8281C156.379 89.6349 154.291 87.9943 152.771 85.9062C151.251 83.8182 150.484 81.4176 150.47 78.7045H162.402C162.416 79.5426 162.672 80.2955 163.169 80.9631C163.68 81.6165 164.376 82.1278 165.257 82.4972C166.137 82.8665 167.146 83.0511 168.282 83.0511C169.376 83.0511 170.342 82.8594 171.18 82.4759C172.018 82.0781 172.672 81.5312 173.14 80.8352C173.609 80.1392 173.836 79.3437 173.822 78.4489C173.836 77.5682 173.566 76.7869 173.012 76.1051C172.473 75.4233 171.713 74.8906 170.733 74.5071C169.752 74.1236 168.623 73.9318 167.345 73.9318H162.913V65.75H167.345C168.524 65.75 169.561 65.5582 170.456 65.1747C171.365 64.7912 172.068 64.2585 172.565 63.5767C173.076 62.8949 173.325 62.1136 173.311 61.233C173.325 60.3807 173.119 59.6278 172.693 58.9744C172.267 58.321 171.67 57.8097 170.903 57.4403C170.15 57.071 169.277 56.8864 168.282 56.8864C167.203 56.8864 166.237 57.0781 165.385 57.4616C164.547 57.8452 163.886 58.3778 163.403 59.0597C162.92 59.7415 162.672 60.5227 162.657 61.4034H151.322C151.336 58.733 152.068 56.375 153.517 54.3295C154.98 52.2841 156.983 50.679 159.525 49.5142C162.068 48.3494 164.987 47.767 168.282 47.767C171.507 47.767 174.355 48.3139 176.826 49.4077C179.312 50.5014 181.251 52.0071 182.643 53.9247C184.049 55.8281 184.745 58.0085 184.731 60.4659C184.76 62.9091 183.922 64.9119 182.217 66.4744C180.527 68.0369 178.382 68.9602 175.782 69.2443V69.5852C179.305 69.9687 181.954 71.0483 183.73 72.8239C185.505 74.5852 186.379 76.8011 186.35 79.4716C186.365 82.0284 185.598 84.294 184.049 86.2685C182.515 88.2429 180.377 89.7912 177.636 90.9134C174.909 92.0355 171.762 92.5966 168.197 92.5966ZM205.344 92H188.555V48.3636H205.174C209.663 48.3636 213.54 49.2372 216.808 50.9844C220.089 52.7173 222.617 55.2173 224.393 58.4844C226.183 61.7372 227.077 65.6364 227.077 70.1818C227.077 74.7273 226.19 78.6335 224.414 81.9006C222.638 85.1534 220.124 87.6534 216.871 89.4006C213.619 91.1335 209.776 92 205.344 92ZM200.401 81.9432H204.918C207.077 81.9432 208.917 81.5952 210.437 80.8991C211.971 80.2031 213.136 79.0028 213.931 77.2983C214.741 75.5937 215.146 73.2216 215.146 70.1818C215.146 67.142 214.734 64.7699 213.91 63.0653C213.1 61.3608 211.907 60.1605 210.33 59.4645C208.768 58.7685 206.85 58.4205 204.577 58.4205H200.401V81.9432Z" fill="white"/>
<path d="M240.305 57.9091V48.3636H278.231V57.9091H265.106V92H253.43V57.9091H240.305ZM279.689 92V48.3636H311.138V57.9091H291.536V65.4091H309.519V74.9545H291.536V82.4545H311.053V92H279.689ZM354.752 64.7273H342.735C342.65 63.733 342.423 62.831 342.053 62.0213C341.698 61.2116 341.201 60.5156 340.562 59.9332C339.937 59.3366 339.177 58.8821 338.282 58.5696C337.387 58.2429 336.372 58.0795 335.235 58.0795C333.247 58.0795 331.563 58.5625 330.186 59.5284C328.822 60.4943 327.785 61.8793 327.075 63.6832C326.379 65.4872 326.031 67.6534 326.031 70.1818C326.031 72.8523 326.386 75.0895 327.096 76.8935C327.82 78.6832 328.865 80.0327 330.228 80.9418C331.592 81.8366 333.232 82.2841 335.15 82.2841C336.244 82.2841 337.224 82.1491 338.09 81.8793C338.957 81.5952 339.71 81.1903 340.349 80.6648C340.988 80.1392 341.507 79.5071 341.904 78.7685C342.316 78.0156 342.593 77.1705 342.735 76.233L354.752 76.3182C354.61 78.1648 354.092 80.0469 353.197 81.9645C352.302 83.8679 351.031 85.6293 349.383 87.2486C347.749 88.8537 345.725 90.1463 343.311 91.1264C340.896 92.1065 338.09 92.5966 334.894 92.5966C330.889 92.5966 327.295 91.7372 324.113 90.0185C320.945 88.2997 318.438 85.7713 316.592 82.4332C314.759 79.0952 313.843 75.0114 313.843 70.1818C313.843 65.3239 314.781 61.233 316.656 57.9091C318.531 54.571 321.059 52.0497 324.241 50.3452C327.423 48.6264 330.974 47.767 334.894 47.767C337.65 47.767 340.186 48.1435 342.501 48.8963C344.816 49.6491 346.847 50.75 348.595 52.1989C350.342 53.6335 351.748 55.402 352.813 57.5043C353.879 59.6065 354.525 62.0142 354.752 64.7273ZM357.127 92V48.3636H368.974V65.4091H384.655V48.3636H396.502V92H384.655V74.9545H368.974V92H357.127Z" fill="white"/>
</svg>
